<svg class="cmp-logo" xmlns="http://www.w3.org/2000/svg" viewBox="0 0 404 82">
	<defs>
		<radialGradient class="cmp-logo__fin-shading" id="fin_shading" cx="0.75" cy="0.25" r="1">
			<stop offset="0%" class="cmp-logo__fin-shading--stop1" />
			<stop offset="100%" class="cmp-logo__fin-shading--stop2" />
		</radialGradient>
		<radialGradient class="cmp-logo__body-shading" id="body_shading" cx="0.75" cy="0.25" r="1">
			<stop offset="0%" class="cmp-logo__body-shading--stop1" />
			<stop offset="100%" class="cmp-logo__body-shading--stop2" />
		</radialGradient>
		<linearGradient class="cmp-logo__thruster-shading" id="thruster_shading" x1="1" y1="0" x2="0" y2=
	"1">
			<stop offset="0%" class="cmp-logo__thruster-shading--stop1" />
			<stop offset="100%" class="cmp-logo__thruster-shading--stop2" />
		</linearGradient>
		<radialGradient class="cmp-logo__window-shading" id="window_shading" cx="0.5" cy="0.5" r="1">
			<stop offset="0%" class="cmp-logo__window-shading--stop1" />
			<stop offset="40%" class="cmp-logo__window-shading--stop2" />
			<stop offset="45%" class="cmp-logo__window-shading--stop3" />
			<stop offset="47%" class="cmp-logo__window-shading--stop4" />
			<stop offset="50%" class="cmp-logo__window-shading--stop5" />
		</radialGradient>
		<radialGradient class="cmp-logo__flame-outer-shading" id="flame_outer_shading" cx="0.75" cy="0.25" r="1">
			<stop offset="0%" class="cmp-logo__flame-outer-shading--stop1" />
			<stop offset="100%" class="cmp-logo__flame-outer-shading--stop2" />
		</radialGradient>
		<radialGradient class="cmp-logo__flame-inner-shading" id="flame_inner_shading" cx="0.75" cy="0.25" r="1">
			<stop offset="0%" class="cmp-logo__flame-inner-shading--stop1" />
			<stop offset="100%" class="cmp-logo__flame-inner-shading--stop2" />
		</radialGradient>
	</defs>
	<g class="cmp-logo__rocket">
		<path class="cmp-logo__fins" d="m26.5 33.2 6.5-11c1-1.4.3-3.4-1.3-4a20 20 0 0 0-27.3 20c.2 2.4 3.1 3.5 4.9 1.8a20 20 0 0 1 14.6-5.4c1 0 2-.5 2.6-1.4ZM44.2 51l11-6.6c1.4-1 3.4-.3 4 1.3a20 20 0 0 1-20 27.3c-2.4-.2-3.5-3.1-1.8-4.9a20 20 0 0 0 5.4-14.6c0-1 .5-2 1.4-2.6Z" />
		<path class="cmp-logo__body" d="M75.2 2C72.4-.8 50-1 36.3 12.8 22.6 26.3 22.2 48 25.7 51.6c3.5 3.5 25.2 3 38.9-10.7C78.3 27.3 78 5 75.2 2Z"/>
		<path class="cmp-logo__thruster" d="M29.4 58 19.2 48c-.7-.8-.9-2-.4-2.9l3.2-5.6a2.4 2.4 0 0 1 3.8-.5l12.5 12.5c1.2 1.2.9 3-.5 3.8l-5.6 3.2c-1 .6-2 .4-2.9-.4Z"/>
		<circle stroke-width="1" class="cmp-logo__window" cx="55" cy="22" r="9.5"  />
		<path class="cmp-logo__flame-outer" d="M22.9 70c-3 2.8-12.3 5-18 6.2A3.2 3.2 0 0 1 1 72.4c1-5.7 3.3-15.1 6.2-18A11 11 0 1 1 23 69.9Z"/>
		<path  class="cmp-logo__flame-inner" d="M19.3 67.2c-2 2-10 3.6-12.6 4a.6.6 0 0 1-.7-.7C6.5 68 8 60 10 58a6.5 6.5 0 0 1 9.3 9.3Z"/>
	</g>
	<path class="cmp-logo__text" fill="hsl(28deg 6% 32%)" d="m95.2 63.8 7.4-34.5c.8-4 2.9-5.7 6-5.7h9.4c9.6 0 15 4.6 15 12.4 0 10.6-6.3 17.6-18.4 17.6h-7.4L105 64c-.6 3-2.1 4.6-5 4.6H99c-2.8 0-4.4-1.7-3.7-4.7ZM115 46.3c5 0 8.4-3.5 8.4-9.3 0-3.8-2.2-5.6-6.6-5.6H112l-3.2 14.9h6.2ZM132.6 64l6.2-29c0-.3 1.3-.8 2.8-.8 2 0 3.7 1 4.2 3.3.3 1 .3 2 .2 3.3 1.8-4.3 4.7-7 8.4-7 3.2 0 5.3 1.9 5.3 4.8 0 5-4.4 6.7-4.5 6.6-.7-1.1-1.8-2-3.8-2-3.6 0-5.8 3.7-7.4 10.8l-2 10c-.8 3-2 4.5-4.6 4.5h-1c-2.5 0-4.5-1.5-3.8-4.5ZM159 54.4c0-10.8 7-20.6 18-20.6 9.3 0 14.7 6 14.7 14.4 0 10.9-6.8 20.7-18 20.7-9.1 0-14.6-6-14.6-14.5Zm24-6.3c0-4.1-2.5-7-6.3-7-5.3 0-8.9 7.6-8.9 13.5 0 4.1 2.5 7 6.3 7 5.3 0 8.8-7.6 8.8-13.5ZM191.6 76.4l8.8-41.5c.1-.3 1.3-.7 2.7-.7 2 0 3.9.8 4.6 3.3.2.8.2 1.8.2 2.8 2.2-4 5.8-6.5 10.5-6.5 6 0 11.2 4.2 11.2 13 0 11.5-6.5 22.1-16 22.1a9.8 9.8 0 0 1-9.7-6.3l-3 13.8c-.6 3.5-2 4.8-4.5 4.8h-1c-2.3 0-4.5-1.2-3.8-4.8Zm28.7-28.2c0-4.6-2.5-6.9-5.7-6.9-3.1 0-5.6 2-7.1 4.9l-1.5 6.3c-1 5 1.3 8.9 5.8 8.9 5.4 0 8.5-7.7 8.5-13.2ZM233.9 54.6l3.4-16c.7-3.2 1.8-4.4 4.4-4.4h1c2.6 0 4.7 1.1 4 4.4l-3.4 15.6c-1 4.3.9 7 4.2 7 2.8 0 4.6-1.5 6.4-4.2l3.9-18.4c.7-3.2 1.8-4.4 4.4-4.4h1c2.7 0 4.6 1.1 4 4.4l-4.5 21c-.9 4-.1 5.5 2 6 0 .1-.8 3.2-5.2 3.2-2.9 0-4.9-1.2-5.6-3.6-.4-.7-.5-1.6-.5-2.5-2.6 4-5.9 6.3-10.3 6.3-7.5 0-11-5.9-9.2-14.4ZM270.6 59.2 278 25c.6-3.2 1.9-4.5 4.2-4.5h1.5c2.3 0 4.4 1.2 3.6 4.5L280 59.6c-1 4-.2 5.4 2 6 .1 0-.6 3.2-5.1 3.2-6 0-7.5-4-6.3-9.6ZM286.8 64.7a6 6 0 0 1-1.8-4c0-3.2 3-4.5 3.1-4.2a13 13 0 0 0 10.2 5.5c3 0 4.6-1.3 4.6-3.3 0-2-2-2.6-4.8-3.8-3.9-1.6-8.6-4.2-8.6-10.2 0-6 4.6-11 12.9-11 4.7 0 8.7 1.6 10.9 3.8a5.9 5.9 0 0 1 1.8 4.2c0 3.4-3.3 4.7-3.4 4.5-1.7-2.7-5.1-5.5-9.1-5.5-2.8 0-4.5 1.5-4.5 3.3 0 2 2.2 3 5.3 4.2 4.7 2 8.8 4.4 9 9.7 0 6.3-5 11-13.6 11-5.6 0-9.8-1.7-12-4.2ZM317.5 59.2l4.4-20.5c.7-3.2 2-4.5 4.3-4.5h1.5c2.2 0 4.4 1.1 3.6 4.5l-4.5 21c-1 3.9 0 5.3 2 5.9.2 0-.6 3.2-5.1 3.2-5.8 0-7.4-4-6.2-9.6Zm6.9-34.1c0-3.5 2.2-5.9 5.6-5.9 2.8 0 4.9 1.6 4.9 4.6 0 3.4-2.3 5.8-5.6 5.8-2.9 0-5-1.6-5-4.5ZM334.4 54.4c0-10.8 6.9-20.6 18-20.6 9.2 0 14.7 6 14.7 14.4 0 10.9-6.9 20.7-18 20.7-9.2 0-14.7-6-14.7-14.5Zm24-6.3c0-4.1-2.6-7-6.3-7-5.4 0-9 7.6-9 13.5 0 4.1 2.5 7 6.3 7 5.3 0 9-7.6 9-13.5ZM396.5 68.8c-4 0-6.3-2.3-6.3-6 0-2 .7-4.3 1.6-8.1 1.1-4 1.7-6.6 1.7-8.3 0-3-1.5-4.9-4.4-4.9-2.8 0-4.7 1.5-6.4 4.3l-3.8 17.8c-.8 3.6-2 4.9-4.6 4.9h-1c-2.3 0-4.5-1.2-3.8-4.9l6.1-28.7c.1-.3 1.2-.7 2.7-.7 2 0 3.9.9 4.6 3.3.2.8.3 1.8.3 2.7 2.6-4.2 6-6.4 10.5-6.4 6 0 9.6 4.2 9.6 10 0 2.8-.8 6.5-2 10.5-1 3.6-1.6 6-1.6 7.5 0 2 1 2.7 2.4 3 .3 0-.6 4-5.6 4Z"/>
</svg>
