<svg xmlns="http://www.w3.org/2000/svg" class="prutil-visually-hidden" overflow="visible">
	<symbol id="expand-icon" viewBox="0 0 24 24" overflow="visible">
		<path fill="none" stroke="currentcolor" stroke-linecap="round" stroke-linejoin="round" stroke-width="1" d="
		M 8, 8 l-8,-8 M 0, 5 v-5 h 5
		M 8,16 l-8, 8 M 0,19 v 5 h 5
		M16,16 l 8, 8 M19,24 h 5 v-5
		M16, 8 l 8,-8 M19, 0 h 5 v 5" vector-effect="non-scaling-stroke" />
	</symbol>

	<symbol id="shrink-icon" viewBox="0 0 24 24" overflow="visible">
		<path fill="none" stroke="currentcolor" stroke-width="1" stroke-linecap="round" stroke-linejoin="round" d="
			M 8, 8 l-8,-8 M 8, 8v-5 M 8, 8h-5
			M 8,16 l-8, 8 M 8,16v 5 M 8,16h-5
			M16,16 l 8, 8 M16,16v 5 M16,16h 5
			M16, 8 l 8,-8 M16, 8v-5 M16, 8h 5
			" vector-effect="non-scaling-stroke" />
	</symbol>

	<symbol id="icon-chevron-down" viewBox="0 0 24 24" overflow="visible">
		<path fill="none" stroke="currentcolor" stroke-width="1" vector-effect="non-scaling-stroke" d="M2,10l10,8l10,-8"/>
	</symbol>

	<symbol id="icon-copy" viewBox="0 0 24 24" overflow="visible">
		<g fill="none" stroke="currentcolor" stroke-width="1" vector-effect="non-scaling-stroke">
			<rect x="1" y="8" height="16" width="16" rx="2" ry="2" />
			<path fill="none" stroke="currentcolor" stroke-width="1" stroke-linejoin="round" stroke-linecap="round"
				d="M8,8v-5 a2,5 0 0 1 1,-1
				h14 a14,-4 0 0 1 1,1
				v14 a5,14 0 0 1, -1,1
				h-6"
			/>
		</g>
	</symbol>

	<symbol id="icon-template" viewBox="0 0 24 24" overflow="visible">
  	 <path fill="currentcolor" d="M2.18 11.9V11c.8 0 1.34-.16 1.65-.5.32-.33.48-.88.48-1.66V6.58c0-.65.06-1.22.19-1.7.12-.48.33-.87.61-1.18.29-.32.67-.55 1.14-.7A5.82 5.82 0 0 1 8 2.77v1.4c-.55 0-.98.08-1.3.25-.3.17-.53.44-.66.8-.13.35-.2.8-.2 1.36v2.84c0 .37-.04.7-.14 1-.1.31-.28.57-.54.79-.26.22-.63.39-1.11.5-.48.12-1.1.18-1.87.18ZM8 20.94c-.7 0-1.28-.07-1.75-.22a2.54 2.54 0 0 1-1.14-.7 2.8 2.8 0 0 1-.61-1.18 6.87 6.87 0 0 1-.19-1.7v-2.27c0-.78-.16-1.34-.48-1.67-.3-.33-.86-.5-1.65-.5v-.87c.77 0 1.39.05 1.87.17.48.12.85.29 1.11.5.26.22.44.49.54.79.1.3.14.64.14 1v2.85c0 .55.07 1 .2 1.36.13.36.35.62.66.79.32.17.75.26 1.3.26v1.4Zm-5.82-8.23v-1.7h1.68v1.7H2.18Zm18.64-.88v.88c-.8 0-1.35.16-1.66.5-.32.32-.47.88-.47 1.65v2.28c0 .65-.07 1.22-.2 1.7-.12.47-.32.87-.6 1.18-.29.31-.67.55-1.14.7-.47.15-1.06.22-1.76.22v-1.39c.55 0 .98-.09 1.3-.26.31-.17.54-.43.66-.79.14-.35.2-.8.2-1.36V14.3c0-.37.05-.7.15-1.01.1-.3.27-.57.54-.78.26-.22.63-.39 1.1-.5a8.1 8.1 0 0 1 1.88-.18Zm-5.83-9.07c.7 0 1.29.08 1.76.23.47.15.85.38 1.13.7.29.3.5.7.62 1.18s.19 1.05.19 1.7v2.27c0 .78.15 1.33.47 1.66.31.34.87.5 1.66.5v.88a8.1 8.1 0 0 1-1.88-.18 2.74 2.74 0 0 1-1.1-.5 1.7 1.7 0 0 1-.54-.78c-.1-.3-.15-.64-.15-1.01V6.58c0-.55-.06-1-.2-1.36a1.4 1.4 0 0 0-.66-.8 2.72 2.72 0 0 0-1.3-.26V2.77Zm5.83 8.24v1.7h-1.68v-1.7h1.68Z"/>
</symbol>

<symbol id="icon-html" viewBox="0 0 24 24" overflow="visible">
		<path fill="none" stroke="currentcolor" stroke-width="1" stroke-linecap="round" stroke-linejoin="round" vector-effect="non-scaling-stroke"
		d="M10,6l-8,6l8,6
		   M16,6l8,6l-8,6" />
	</symbol>

	<symbol id="icon-layout-preview-top" viewBox="0 0 24 24" overflow="visible">
		<g fill="none" stroke="currentcolor" stroke-width="1" vector-effect="non-scaling-stroke">
			<rect x="0" y="0" height="24" width="24" rx="2" ry="2" />
			<path d="M0,12h24M12,12v12" />
			<circle cx="6" cy="6" r="2" />
			<path d="M5,16l-2,2l2,2M7,16l2,2l-2,2" />
			<path d="M15,16h6M15,18h6M15,20h4"/>
		</g>
	</symbol>

	<symbol id="icon-layout-preview-side" viewBox="0 0 24 24" overflow="visible">
		<g fill="none" stroke="currentcolor" stroke-width="1" vector-effect="non-scaling-stroke">
			<rect x="0" y="0" height="24" width="24" rx="2" ry="2" />
			<path d="M12,0v24M12,12h12" />
			<circle cx="6" cy="6" r="2" />
			<path d="M15,16h6M15,18h6M15,20h4" />
			<path d="M17,4l-2,2l2,2M19,4l2,2l-2,2" />
		</g>
	</symbol>

	<symbol id="icon-layout-docs-top" viewBox="0 0 24 24" overflow="visible">
		<g fill="none" stroke="currentcolor" stroke-width="1" vector-effect="non-scaling-stroke">
			<rect x="0" y="0" height="24" width="24" rx="2" ry="2" />
			<path d="M0,12h24M12,12v12" />
			<circle cx="6" cy="18" r="2" />
			<path d="M3,4h6M3,6h6M3,8h4" />
			<path d="M17,16l-2,2l2,2M19,16l2,2l-2,2" />
		</g>
	</symbol>

	<symbol id="icon-layout-docs-side" viewBox="0 0 24 24" overflow="visible">
		<g fill="none" stroke="currentcolor" stroke-width="1" vector-effect="non-scaling-stroke">
			<rect x="0" y="0" height="24" width="24" rx="2" ry="2" />
			<path d="M12,0v24M12,12h12" />
			<circle cx="18" cy="6" r="2" />
			<path d="M3,4h6M3,6h6M3,8h4" />
			<path d="M17,16l-2,2l2,2M19,16l2,2l-2,2" />
		</g>
	</symbol>

	<symbol id="icon-layout-rows" viewBox="0 0 24 24" overflow="visible">
		<g fill="none" stroke="currentcolor" stroke-width="1" vector-effect="non-scaling-stroke">
			<rect x="0" y="0" height="24" width="24" rx="2" ry="2" />
			<path d="M0,8h24M0,16h24" />
		</g>
	</symbol>

	<symbol id="icon-layout-columns" viewBox="0 0 24 24" overflow="visible">
		<g fill="none" stroke="currentcolor" stroke-width="1" vector-effect="non-scaling-stroke">
			<rect x="0" y="0" height="24" width="24" rx="2" ry="2" />
			<path d="M8,0v24M16,0v24" />
		</g>
	</symbol>
</svg>
